<svg width="524" height="85" viewBox="0 0 524 85" fill="none" xmlns="http://www.w3.org/2000/svg">
<path d="M93.3501 31.6651C93.3501 21.1471 92.8695 10.5181 92.3704 0C94.4407 0.369704 96.4001 0.610008 98.3596 0.610008C100.319 0.610008 102.278 0.369704 104.349 0C103.868 10.5181 103.369 21.1471 103.369 31.6651V52.7013C103.369 63.2194 103.85 73.8484 104.349 84.3664C102.278 83.9967 100.319 83.7564 98.3596 83.7564C96.4001 83.7564 94.4407 83.9967 92.3704 84.3664C92.851 73.8484 93.3501 63.2194 93.3501 52.7013V31.6651Z" fill="white"/>
<path d="M236.038 31.6651C236.038 21.1471 235.557 10.5181 235.058 0C237.128 0.369704 239.088 0.610008 241.047 0.610008C243.007 0.610008 244.966 0.369704 247.036 0C246.556 10.5181 246.057 21.1471 246.057 31.6651V52.7013C246.057 63.2194 246.537 73.8484 247.036 84.3664C244.966 83.9967 243.007 83.7564 241.047 83.7564C239.088 83.7564 237.128 83.9967 235.058 84.3664C235.538 73.8484 236.038 63.2194 236.038 52.7013V31.6651Z" fill="white"/>
<path d="M287.371 31.5357C287.371 21.0177 286.89 10.3887 286.391 0C293.73 0.369704 300.939 0.610008 308.278 0.610008C315.616 0.610008 322.825 0.369704 330.035 0C329.794 1.22002 329.665 2.44005 329.665 3.66007C329.665 4.88009 329.794 6.10011 330.035 7.32014C319.757 6.58073 313.768 5.73041 297.889 5.73041C297.76 10.9802 297.408 15.2688 297.408 21.258C297.408 27.6169 297.538 34.3455 297.538 37.3956C311.956 37.3956 320.034 36.7855 327.243 36.1755C327.003 37.3956 326.874 38.745 326.874 39.965C326.874 41.185 327.003 42.4051 327.243 43.6251C318.814 42.7748 303.397 42.516 297.538 42.516C297.408 45.4551 297.408 48.5052 297.408 60.2433C297.408 69.5413 297.538 75.5305 297.649 78.5806C308.536 78.5806 322.955 78.4512 330.663 76.9909C330.423 78.1 330.293 79.6712 330.293 80.7803C330.293 81.8894 330.423 83.2204 330.663 84.3295C323.454 83.9598 316.115 83.7195 308.666 83.7195C301.216 83.7195 293.878 83.9598 286.41 84.3295C286.89 73.7005 287.389 63.053 287.389 52.5534V31.5173L287.371 31.5357Z" fill="white"/>
<path d="M498.454 51.5922L483.166 14.9176L469.838 45.9727L467.509 51.5922C462.37 64.1806 457.731 76.6581 455.66 84.348C454.071 83.9783 452.61 83.738 451.131 83.738C449.653 83.738 448.192 83.9783 446.603 84.348C459.69 55.7329 472.389 28.8554 484.867 0H487.196C499.174 28.3563 517.512 71.2789 524 84.348C521.8 83.9783 519.73 83.738 517.512 83.738C515.294 83.738 513.242 83.9783 511.042 84.348C508.713 75.9187 502.853 62.4615 498.454 51.5922Z" fill="white"/>
<path d="M393.661 42.6638C402.959 41.4438 418.727 35.0849 418.727 19.317C418.727 4.76918 407.118 0 393.291 0C388.651 0 383.993 0.610008 379.353 0.610008C374.714 0.610008 367.338 0.369704 362.698 0C363.179 10.5181 363.678 21.1471 363.678 31.6651V52.7013C363.678 63.2194 363.197 73.8484 362.698 84.3664C364.769 83.9967 366.728 83.7564 368.687 83.7564C370.647 83.7564 372.606 83.9967 374.677 84.3664C374.196 73.8484 373.697 63.2194 373.697 52.7013V31.6651C373.697 22.8662 374.067 14.0672 374.436 5.13888C377.006 4.89858 383.402 4.52888 389.021 4.52888C397.339 4.52888 407.968 7.70833 407.968 20.5371C407.968 35.0849 394.641 39.2441 384.622 39.2441C383.383 39.2441 382.2 39.2256 381.091 39.1701V43.7729C391.609 54.4019 416.028 76.8984 420.908 84.348C423.237 83.9783 425.677 83.738 428.006 83.738C430.447 83.738 432.905 83.9783 435.345 84.348C428.247 76.3993 399.669 50.1134 393.679 42.6638" fill="white"/>
<path d="M30.9627 42.6638C40.2608 41.4438 56.0286 35.0849 56.0286 19.317C56.0286 4.76918 44.4199 0 30.593 0C25.9532 0 21.2949 0.610008 16.6552 0.610008C12.0154 0.610008 4.63979 0.369704 0 0C0.480615 10.5181 0.979713 21.1471 0.979713 31.6651V52.7013C0.979713 63.2194 0.4991 73.8484 0 84.3664C2.07034 83.9967 4.02977 83.7564 5.9892 83.7564C7.94863 83.7564 9.90807 83.9967 11.9784 84.3664C11.4978 73.8484 10.9987 63.2194 10.9987 52.7013V31.6651C10.9987 22.8662 11.3684 14.0672 11.7381 5.13888C14.3075 4.89858 20.7034 4.52888 26.3229 4.52888C34.6413 4.52888 45.2703 7.70833 45.2703 20.5371C45.2703 35.0849 31.9424 39.2441 21.9234 39.2441C20.6849 39.2441 19.5019 39.2256 18.3928 39.1701V43.7729C28.9109 54.4019 53.3298 76.8984 58.2099 84.348C60.539 83.9783 62.9791 83.738 65.3082 83.738C67.7483 83.738 70.2068 83.9783 72.6468 84.348C65.5485 76.3993 36.9704 50.1134 30.9812 42.6638" fill="white"/>
<path d="M132.372 0C134.443 0.369704 136.642 0.610008 138.731 0.610008C140.82 0.610008 143.001 0.369704 145.09 0C152.299 21.6462 162.688 47.5624 172.966 72.2402C181.894 52.4425 195.573 16.0082 200.712 0C202.172 0.369704 203.762 0.610008 205.241 0.610008C206.72 0.610008 208.291 0.369704 209.77 0C197.052 28.116 185.314 56.232 174.556 84.348C173.206 83.9783 171.857 83.738 170.526 83.738C169.195 83.738 167.587 83.9783 166.496 84.348C159.157 64.1806 144.24 28.116 132.391 0" fill="white"/>
</svg>
