<svg width="500" height="111" viewBox="0 0 500 111" fill="none" xmlns="http://www.w3.org/2000/svg">
<path d="M0 108.035V2.25428H11.1676V108.035H0ZM79.3045 110.007C77.3254 110.288 75.205 110.429 73.2259 110.429C46.5083 110.429 22.4767 86.9069 22.4767 55.215C22.4767 23.5231 46.5083 0.000625496 73.2259 0.000625496C75.205 0.000625496 77.3254 0.141504 79.3045 0.42321C55.2728 3.38112 34.6339 25.2133 34.6339 55.215C34.6339 85.2167 55.2728 107.049 79.3045 110.007ZM120.441 34.3687C113.514 15.4944 97.3989 2.67686 79.3045 0.42321C81.2836 0.141504 83.404 0.000625496 85.3831 0.000625496C105.881 0.000625496 124.682 13.8042 132.457 34.3687H120.441ZM132.881 75.0753C125.247 96.2032 106.163 110.429 85.3831 110.429C83.404 110.429 81.2836 110.288 79.3045 110.007C97.6816 107.753 113.797 94.6538 120.724 75.0753H132.881ZM196.494 110.007C194.515 110.288 192.395 110.429 190.416 110.429C163.698 110.429 139.666 86.9069 139.666 55.215C139.666 23.5231 163.698 0.000625496 190.416 0.000625496C192.395 0.000625496 194.515 0.141504 196.494 0.42321C172.463 3.38112 151.824 25.2133 151.824 55.215C151.824 85.2167 172.463 107.049 196.494 110.007ZM253.322 55.215C253.322 86.9069 229.29 110.429 202.573 110.429C200.594 110.429 198.473 110.288 196.494 110.007C220.667 107.049 241.165 85.2167 241.165 55.215C241.165 25.2133 220.526 3.38112 196.494 0.42321C198.473 0.141504 200.594 0.000625496 202.573 0.000625496C229.29 -0.140227 253.322 23.5231 253.322 55.215ZM264.914 108.035V2.25428H275.799V108.035H264.914ZM329.799 108.035L276.647 2.25428H287.673L340.826 108.035H329.799ZM341.674 108.035V2.25428H352.559V108.035H341.674ZM367.119 108.035V2.25428H378.287V108.035H367.119ZM446.565 110.007C444.586 110.288 442.465 110.429 440.486 110.429C413.769 110.429 389.737 86.9069 389.737 55.215C389.737 23.5231 413.769 0.000625496 440.486 0.000625496C442.465 0.000625496 444.586 0.141504 446.565 0.42321C422.533 3.38112 401.894 25.2133 401.894 55.215C401.753 85.2167 422.392 107.049 446.565 110.007ZM487.56 34.3687C480.633 15.4944 464.518 2.67686 446.424 0.42321C448.403 0.141504 450.523 0.000625496 452.502 0.000625496C473 0.000625496 491.801 13.8042 499.576 34.3687H487.56ZM500 75.0753C492.366 96.2032 473.283 110.429 452.502 110.429C450.523 110.429 448.403 110.288 446.424 110.007C464.801 107.753 480.916 94.6538 487.843 75.0753H500Z" fill="white"/>
</svg>
