<svg width="500" height="241" viewBox="0 0 500 241" fill="none" xmlns="http://www.w3.org/2000/svg">
<path d="M0 108.035V2.25428H11.1676V108.035H0ZM79.3045 110.007C77.3254 110.288 75.205 110.429 73.2259 110.429C46.5083 110.429 22.4767 86.9069 22.4767 55.215C22.4767 23.5231 46.5083 0.000625496 73.2259 0.000625496C75.205 0.000625496 77.3254 0.141504 79.3045 0.42321C55.2728 3.38112 34.6339 25.2133 34.6339 55.215C34.6339 85.2167 55.2728 107.049 79.3045 110.007ZM120.441 34.3687C113.514 15.4944 97.3989 2.67686 79.3045 0.42321C81.2836 0.141504 83.404 0.000625496 85.3831 0.000625496C105.881 0.000625496 124.682 13.8042 132.457 34.3687H120.441ZM132.881 75.0753C125.247 96.2032 106.163 110.429 85.3831 110.429C83.404 110.429 81.2836 110.288 79.3045 110.007C97.6816 107.753 113.797 94.6538 120.724 75.0753H132.881ZM196.494 110.007C194.515 110.288 192.395 110.429 190.416 110.429C163.698 110.429 139.666 86.9069 139.666 55.215C139.666 23.5231 163.698 0.000625496 190.416 0.000625496C192.395 0.000625496 194.515 0.141504 196.494 0.42321C172.463 3.38112 151.824 25.2133 151.824 55.215C151.824 85.2167 172.463 107.049 196.494 110.007ZM253.322 55.215C253.322 86.9069 229.29 110.429 202.573 110.429C200.594 110.429 198.473 110.288 196.494 110.007C220.667 107.049 241.165 85.2167 241.165 55.215C241.165 25.2133 220.526 3.38112 196.494 0.42321C198.473 0.141504 200.594 0.000625496 202.573 0.000625496C229.29 -0.140227 253.322 23.5231 253.322 55.215ZM264.914 108.035V2.25428H275.799V108.035H264.914ZM329.799 108.035L276.647 2.25428H287.673L340.826 108.035H329.799ZM341.674 108.035V2.25428H352.559V108.035H341.674ZM367.119 108.035V2.25428H378.287V108.035H367.119ZM446.565 110.007C444.586 110.288 442.465 110.429 440.486 110.429C413.769 110.429 389.737 86.9069 389.737 55.215C389.737 23.5231 413.769 0.000625496 440.486 0.000625496C442.465 0.000625496 444.586 0.141504 446.565 0.42321C422.533 3.38112 401.894 25.2133 401.894 55.215C401.753 85.2167 422.392 107.049 446.565 110.007ZM487.56 34.3687C480.633 15.4944 464.518 2.67686 446.423 0.42321C448.403 0.141504 450.523 0.000625496 452.502 0.000625496C473 0.000625496 491.801 13.8042 499.576 34.3687H487.56ZM500 75.0753C492.366 96.2032 473.282 110.429 452.502 110.429C450.523 110.429 448.403 110.288 446.423 110.007C464.801 107.753 480.916 94.6538 487.843 75.0753H500ZM163.133 141.135H169.777C171.332 141.135 172.604 141.276 173.593 141.699C174.583 141.98 175.29 142.403 175.855 142.966C176.421 143.53 176.845 144.093 176.986 144.797C177.127 145.502 177.269 146.206 177.269 146.91C177.269 148.319 176.986 149.446 176.421 150.291C175.855 151.277 174.866 151.981 173.452 152.404L177.976 162.263H175.855L171.614 152.826C171.332 152.826 170.908 152.967 170.625 152.967C170.342 152.967 169.918 152.967 169.494 152.967H164.829V162.263H162.991V141.135H163.133ZM170.059 151.418C171.19 151.418 172.038 151.277 172.745 151.136C173.452 150.995 174.018 150.572 174.442 150.291C174.866 149.868 175.148 149.446 175.29 148.882C175.431 148.319 175.572 147.755 175.572 147.051C175.572 146.347 175.431 145.783 175.29 145.22C175.148 144.657 174.866 144.234 174.3 143.952C173.735 143.671 173.311 143.389 172.462 143.107C171.756 142.966 170.766 142.826 169.635 142.826H164.829V151.558H170.059V151.418ZM181.651 141.135H194.939V142.685H183.489V150.432H194.374V152.122H183.489V160.573H195.505L195.081 162.263H181.651V141.135ZM199.463 156.629C199.746 158.178 200.452 159.305 201.442 160.01C202.431 160.714 203.986 160.996 206.107 160.996C207.238 160.996 208.086 160.855 208.793 160.573C209.5 160.291 210.065 160.01 210.489 159.587C210.913 159.164 211.196 158.742 211.337 158.178C211.479 157.615 211.62 157.052 211.62 156.488C211.62 155.925 211.62 155.502 211.479 155.08C211.337 154.657 211.196 154.235 210.913 153.812C210.63 153.389 210.206 153.108 209.641 152.826C209.075 152.544 208.369 152.263 207.379 152.122L204.693 151.699C203.704 151.558 202.714 151.277 202.007 150.995C201.159 150.713 200.594 150.291 200.028 149.868C199.463 149.446 199.039 148.882 198.756 148.178C198.473 147.474 198.332 146.629 198.332 145.783C198.332 144.938 198.473 143.952 198.897 143.248C199.321 142.544 199.887 141.98 200.594 141.558C201.301 141.135 202.007 140.713 202.997 140.572C203.986 140.29 204.835 140.29 205.965 140.29C207.238 140.29 208.369 140.431 209.358 140.713C210.206 140.994 210.913 141.417 211.62 141.84C212.185 142.262 212.61 142.826 212.892 143.389C213.175 143.952 213.458 144.657 213.599 145.22L211.903 145.643C211.761 145.079 211.479 144.516 211.196 143.952C210.913 143.389 210.63 143.107 210.065 142.685C209.641 142.403 209.075 142.121 208.369 141.98C207.662 141.84 206.814 141.699 205.965 141.699C204.835 141.699 203.986 141.84 203.28 141.98C202.573 142.121 202.007 142.544 201.442 142.826C201.018 143.248 200.594 143.671 200.452 144.093C200.311 144.657 200.17 145.079 200.17 145.643C200.17 146.206 200.17 146.769 200.311 147.192C200.452 147.615 200.735 148.037 201.018 148.319C201.301 148.601 201.866 148.882 202.431 149.164C202.997 149.446 203.704 149.586 204.552 149.727L207.52 150.291C208.651 150.432 209.5 150.713 210.348 150.995C211.196 151.277 211.761 151.699 212.327 152.122C212.892 152.544 213.175 153.249 213.458 153.812C213.74 154.516 213.882 155.221 213.882 156.207C213.882 157.052 213.74 157.756 213.458 158.46C213.175 159.164 212.61 159.869 212.044 160.291C211.479 160.855 210.63 161.277 209.782 161.559C208.793 161.841 207.803 161.982 206.531 161.982C205.4 161.982 204.269 161.841 203.28 161.7C202.29 161.418 201.442 161.136 200.735 160.714C200.028 160.291 199.321 159.587 198.897 158.883C198.473 158.178 198.191 157.193 198.049 156.066H199.463V156.629ZM217.981 141.135H219.819V162.263H217.981V141.135ZM224.625 141.135H231.835C233.248 141.135 234.662 141.417 235.793 141.84C236.924 142.262 238.055 142.966 238.762 143.811C239.61 144.657 240.175 145.783 240.599 147.051C241.023 148.319 241.306 149.868 241.306 151.699C241.306 153.53 241.023 155.08 240.599 156.347C240.175 157.756 239.468 158.742 238.62 159.728C237.772 160.573 236.641 161.277 235.369 161.7C234.097 162.122 232.683 162.404 231.128 162.404H224.625V141.135ZM231.269 160.573C234.097 160.573 236.217 159.728 237.489 158.178C238.762 156.629 239.468 154.375 239.468 151.558C239.468 148.741 238.903 146.488 237.631 144.938C236.358 143.389 234.521 142.685 231.835 142.685H226.463V160.573H231.269ZM245.547 141.135H258.835V142.685H247.385V150.432H258.27V152.122H247.385V160.573H259.401L258.977 162.263H245.547V141.135ZM263.076 141.135H265.055L276.93 159.446V141.135H278.626V162.263H276.647L264.772 143.952V162.263H263.076V141.135ZM300.537 155.502C300.396 156.488 300.113 157.474 299.689 158.46C299.265 159.305 298.699 160.15 297.993 160.714C297.286 161.418 296.438 161.841 295.448 162.263C294.459 162.686 293.328 162.827 292.055 162.827C290.642 162.827 289.37 162.545 288.239 162.122C287.108 161.7 286.118 160.996 285.27 160.01C284.422 159.024 283.856 157.897 283.432 156.488C283.008 155.08 282.725 153.53 282.725 151.699C282.725 149.868 283.008 148.319 283.432 146.91C283.856 145.502 284.563 144.375 285.411 143.389C286.26 142.403 287.249 141.699 288.38 141.276C289.511 140.854 290.642 140.572 291.914 140.572C293.186 140.572 294.317 140.713 295.307 141.135C296.296 141.417 297.003 141.98 297.71 142.544C298.417 143.107 298.841 143.811 299.265 144.657C299.689 145.502 299.972 146.347 300.254 147.333L298.558 147.755C298.275 146.91 298.134 146.065 297.71 145.361C297.427 144.657 297.003 144.093 296.438 143.671C295.872 143.248 295.307 142.826 294.6 142.544C293.893 142.262 293.045 142.121 292.055 142.121C290.924 142.121 289.794 142.403 288.945 142.826C288.097 143.248 287.249 143.952 286.684 144.797C286.118 145.643 285.553 146.629 285.27 147.755C284.987 148.882 284.705 150.15 284.705 151.558C284.705 152.967 284.846 154.235 285.129 155.361C285.411 156.488 285.977 157.474 286.542 158.319C287.108 159.164 287.956 159.869 288.804 160.291C289.794 160.714 290.783 160.996 292.055 160.996C293.186 160.996 294.176 160.855 294.883 160.573C295.731 160.291 296.296 159.869 296.862 159.305C297.427 158.742 297.71 158.178 297.993 157.474C298.275 156.77 298.558 156.066 298.699 155.221H300.537V155.502ZM304.778 141.135H318.066V142.685H306.616V150.432H317.501V152.122H306.616V160.573H318.632L318.207 162.263H304.778V141.135ZM322.59 156.629C322.872 158.178 323.579 159.305 324.569 160.01C325.558 160.714 327.113 160.996 329.234 160.996C330.365 160.996 331.213 160.855 331.92 160.573C332.626 160.291 333.192 160.01 333.616 159.587C334.04 159.164 334.323 158.742 334.464 158.178C334.606 157.615 334.747 157.052 334.747 156.488C334.747 155.925 334.747 155.502 334.606 155.08C334.464 154.657 334.323 154.235 334.04 153.812C333.757 153.389 333.333 153.108 332.768 152.826C332.202 152.544 331.496 152.263 330.506 152.122L327.82 151.699C326.831 151.558 325.841 151.277 325.134 150.995C324.286 150.713 323.721 150.291 323.155 149.868C322.59 149.446 322.166 148.882 321.883 148.178C321.6 147.474 321.459 146.629 321.459 145.783C321.459 144.938 321.6 143.952 322.024 143.248C322.448 142.544 323.014 141.98 323.721 141.558C324.427 141.135 325.134 140.713 326.124 140.572C327.113 140.29 327.962 140.29 329.092 140.29C330.365 140.29 331.496 140.431 332.485 140.713C333.333 140.994 334.04 141.417 334.747 141.84C335.312 142.262 335.736 142.826 336.019 143.389C336.302 143.952 336.585 144.657 336.726 145.22L335.03 145.643C334.888 145.079 334.606 144.516 334.323 143.952C334.04 143.389 333.757 143.107 333.192 142.685C332.768 142.403 332.202 142.121 331.496 141.98C330.789 141.84 329.941 141.699 329.092 141.699C327.962 141.699 327.113 141.84 326.407 141.98C325.7 142.121 325.134 142.544 324.569 142.826C324.145 143.248 323.721 143.671 323.579 144.093C323.438 144.657 323.297 145.079 323.297 145.643C323.297 146.206 323.297 146.769 323.438 147.192C323.579 147.615 323.862 148.037 324.145 148.319C324.427 148.601 324.993 148.882 325.558 149.164C326.124 149.446 326.831 149.586 327.679 149.727L330.647 150.291C331.778 150.432 332.626 150.713 333.475 150.995C334.323 151.277 334.888 151.699 335.454 152.122C336.019 152.544 336.302 153.249 336.585 153.812C336.867 154.516 337.009 155.221 337.009 156.207C337.009 157.052 336.867 157.756 336.585 158.46C336.302 159.164 335.736 159.869 335.171 160.291C334.606 160.855 333.757 161.277 332.909 161.559C331.92 161.841 330.93 161.982 329.658 161.982C328.527 161.982 327.396 161.841 326.407 161.7C325.417 161.418 324.569 161.136 323.862 160.714C323.155 160.291 322.448 159.587 322.024 158.883C321.6 158.178 321.317 157.193 321.176 156.066H322.59V156.629ZM11.4504 220.717C11.4504 216.21 8.3404 213.252 3.53407 213.252H0V228.042H3.53407C8.19904 228.042 11.4504 225.225 11.4504 220.717ZM1.83772 214.942H3.67542C7.06812 214.942 9.61267 216.914 9.61267 220.576C9.61267 224.239 7.06812 226.21 3.67542 226.21H1.83772V214.942ZM23.3248 228.042H15.1258V213.252H23.3248V214.942H16.9635V219.731H22.7594V221.421H16.9635V226.492H23.3248V228.042ZM30.5343 228.464C28.838 228.464 27.283 227.76 26.4348 227.056V224.943C27.4244 225.929 28.9793 226.633 30.5343 226.633C32.2307 226.633 33.6443 225.788 33.6443 224.098C33.6443 222.689 32.5134 221.985 30.393 221.14C28.2725 220.154 26.4348 219.309 26.4348 216.914C26.4348 214.379 28.5553 212.829 31.0998 212.829C32.5134 212.829 33.7857 213.252 34.6339 213.815V215.787C33.6443 215.083 32.2307 214.661 31.0998 214.661C29.5448 214.661 28.2725 215.365 28.2725 216.914C28.2725 218.182 29.2621 218.886 31.3825 219.731C33.6443 220.717 35.482 221.703 35.482 224.098C35.482 226.774 33.2202 228.464 30.5343 228.464ZM40.8538 228.042H39.0161V213.252H40.8538V228.042ZM44.5293 220.717C44.5293 216.069 47.922 212.97 51.8801 212.97C53.4351 212.97 54.9901 213.393 56.121 214.097V216.069C54.8487 215.224 53.4351 214.801 51.8801 214.801C48.7701 214.801 46.367 217.196 46.367 220.717C46.367 224.239 48.7701 226.633 51.8801 226.633C53.1524 226.633 53.8592 226.351 54.8487 225.929V220.013H56.6864V227.056C55.2728 227.901 53.8592 228.323 52.0215 228.323C47.922 228.464 44.5293 225.365 44.5293 220.717ZM62.341 228.042H60.5033V213.252H62.341L70.3986 224.943V213.252H72.2363V228.042H70.54L62.341 216.21V228.042ZM92.7339 223.957C92.7339 222.267 91.7444 220.999 90.048 220.435C91.3203 220.013 92.3099 218.886 92.3099 217.055C92.3099 214.801 90.6135 213.252 87.5035 213.252H82.9799V228.042H87.7862C91.0376 228.042 92.7339 226.21 92.7339 223.957ZM84.6763 214.942H87.5035C89.3413 214.942 90.3308 215.787 90.3308 217.337C90.3308 218.745 89.1999 219.872 87.3622 219.872H84.6763V214.942ZM84.6763 226.492V221.281H87.6449C89.4826 221.281 90.7549 222.267 90.7549 223.816C90.7549 225.365 89.624 226.351 87.5035 226.351H84.6763V226.492ZM99.378 221.844L93.8649 213.252H95.9853L100.226 220.154L104.467 213.252H106.588L101.074 221.844V228.182H99.2366V221.844H99.378ZM193.667 213.111H186.316L189.426 209.731H196.777L193.667 213.111ZM419.989 209.731H412.638L409.528 213.111H416.879L419.989 209.731ZM257.846 209.731H250.495L247.385 213.111H254.736L257.846 209.731ZM500 225.224L497.455 228.042H437.235C436.245 228.042 435.68 226.915 436.387 226.07L442.607 219.309H435.114L427.198 228.042H376.308C375.318 228.042 374.753 226.915 375.459 226.07L381.679 219.309H374.187L370.794 223.112C368.25 225.788 365.423 227.76 360.616 228.042H322.307C321.317 228.042 320.752 226.915 321.459 226.07L327.679 219.309H312.694L293.045 241H285.694L297.427 228.042H275.233C274.244 228.042 273.678 226.915 274.385 226.07L280.605 219.309H273.113L265.196 228.042H214.306C213.316 228.042 212.751 226.915 213.458 226.07L219.678 219.309H212.185L204.269 228.042H153.379C152.389 228.042 151.824 226.915 152.53 226.07L158.75 219.309H151.258L131.609 241H124.258L135.991 228.042H122.279L124.823 225.224H138.535L147.865 214.942H155.216L153.379 217.055H165.677C166.667 217.055 167.232 218.182 166.525 219.027L160.729 225.365H175.855L183.347 217.055H190.698L183.206 225.365H199.463L206.955 217.055H226.604C227.594 217.055 228.159 218.182 227.453 219.027L221.657 225.365H236.358L243.851 217.055H251.202L243.709 225.365H259.966L267.458 217.055H287.108C288.097 217.055 288.663 218.182 287.956 219.027L282.16 225.365H299.548L304.919 219.45H297.144L299.265 217.055H307.181L313.543 210.012C315.804 207.477 317.642 205.223 320.469 203.674C323.721 201.843 326.124 201.984 329.658 201.984H339.129L336.019 205.364H331.637C328.951 205.364 326.124 205.787 323.438 207.618C322.731 208.04 321.459 209.308 320.045 210.717L314.391 216.914H351.71L344.218 225.224H356.517C357.365 225.224 358.354 225.084 359.344 224.802C362.03 224.098 363.726 222.548 365.423 220.576L370.512 214.942H377.863L376.025 217.055H388.323C389.313 217.055 389.878 218.182 389.172 219.027L383.376 225.365H398.502L405.994 217.055H413.345L405.852 225.365H422.109L429.601 217.055H449.251C450.24 217.055 450.806 218.182 450.099 219.027L444.303 225.365H459.429L466.921 217.055H489.398L481.906 225.365H500V225.224ZM342.239 219.309H334.747L329.375 225.224H336.867L342.239 219.309ZM479.926 219.309H472.434L467.062 225.224H474.555L479.926 219.309Z" fill="white"/>
</svg>
