<svg width="182" height="58" viewBox="0 0 182 58" fill="none" xmlns="http://www.w3.org/2000/svg">
<g clip-path="url(#clip0_903_284)">
<path d="M38.0417 4.2416L38.0802 25.6614L38.0866 25.6593C38.0866 26.6587 38.1123 27.5361 38.1637 28.2937C38.2172 29.0513 38.3284 29.826 38.5018 30.6178C38.3177 30.5729 37.5623 30.5172 36.779 30.468C35.2296 30.3739 33.676 30.3846 32.1308 30.5172C31.7285 30.5515 31.4075 30.5879 31.2834 30.6178C31.3861 29.9651 31.4738 29.3017 31.5423 28.6297C31.6129 27.9577 31.6643 27.2258 31.6985 26.434V25.6593L31.7756 13.7156L31.7435 13.7627C31.7435 12.0121 31.7884 10.268 31.8762 8.55809C31.3754 10.069 30.7548 11.6205 30.0207 13.1892L23.8702 26.5239C23.7825 26.7122 23.7033 26.9027 23.6327 27.0974L23.6198 27.1274C23.271 27.84 22.644 30.2989 22.644 30.7334L22.4193 30.697C22.37 30.6906 22.263 30.682 22.1175 30.6713C20.3948 30.5472 18.6656 30.5408 16.9407 30.6435C16.5534 30.667 16.2516 30.6863 16.1617 30.697L15.937 30.7334C15.937 30.2989 15.31 27.8379 14.9611 27.1274L14.9483 27.0974C14.8755 26.9027 14.7985 26.7122 14.7108 26.5239L8.56023 13.1892C7.82833 11.6205 7.20558 10.069 6.7048 8.55809C6.79255 10.268 6.83749 12.0121 6.83749 13.7627L6.80539 13.7156L6.88243 25.6593V26.434C6.91667 27.2258 6.96803 27.9577 7.03865 28.6297C7.10713 29.2995 7.19274 29.963 7.2976 30.6178C7.17348 30.5879 6.85247 30.5515 6.45014 30.5172C4.90287 30.3846 3.34919 30.3717 1.80193 30.468C1.02081 30.5151 0.263227 30.5729 0.0791822 30.6178C0.252527 29.826 0.36595 29.0513 0.417311 28.2937C0.468673 27.5361 0.494353 26.6587 0.494353 25.6593L0.532875 4.23946C0.528594 3.61242 0.494353 3.01106 0.430152 2.45465C0.36167 1.85543 0.254667 1.26477 0.117703 0.699799L0 0.214006L0.494353 0.306028C1.21555 0.440852 2.16146 0.509334 3.31281 0.509334H5.12544C6.10987 0.509334 6.91881 0.487933 7.52659 0.447272C8.12152 0.406611 8.67794 0.306028 9.18299 0.147664L9.65594 0L9.60458 0.490073C9.57462 0.776841 9.60672 1.07003 9.69874 1.35894C9.79505 1.66497 9.94485 2.00095 10.1396 2.36048C10.1845 2.40543 10.2188 2.46321 10.2359 2.52955L17.2874 18.0963C17.4244 18.336 17.557 18.6185 17.6683 18.9074C18.3981 20.5167 18.9417 21.942 19.2862 23.1533C19.6308 21.942 20.1743 20.5167 20.9041 18.9074C21.0154 18.6185 21.1481 18.336 21.285 18.0963L28.3387 2.53169C28.3558 2.46535 28.39 2.40757 28.435 2.36262C28.6297 2.00309 28.7795 1.66497 28.8758 1.36108C28.97 1.07217 28.9999 0.778981 28.97 0.492213L28.9186 0.00214006L29.3916 0.149804C29.8966 0.308168 30.4552 0.408751 31.048 0.449412C31.6557 0.490073 32.4647 0.511474 33.4491 0.511474H35.2617C36.4131 0.511474 37.3611 0.442992 38.0802 0.308168L38.5746 0.216146L38.4568 0.701939C38.3199 1.26691 38.215 1.85757 38.1444 2.45679C38.0802 3.01106 38.046 3.61242 38.0417 4.2416Z" fill="#F5F0EB"/>
<path fill-rule="evenodd" clip-rule="evenodd" d="M103.53 16.1715C106.4 15.4717 109.351 13.2461 109.351 9.2164C109.351 7.50435 108.88 5.57188 107.954 4.3178C107.031 3.07015 105.681 2.10926 103.943 1.46083C102.229 0.823087 100.177 0.497798 97.842 0.497798H84.8005C83.6342 0.499938 83.0307 0.472117 82.2817 0.416476C81.5305 0.360834 80.7772 0.277372 80.041 0.168229L79.5253 0.0911865L79.6836 0.589821C79.7821 0.900129 79.8506 1.24254 79.8827 1.61063C79.9169 1.9937 79.934 2.37891 79.934 2.75556L79.9383 26.615C79.9383 27.2977 79.9041 27.9461 79.8334 28.5475C79.7628 29.1488 79.658 29.7416 79.521 30.313L79.4033 30.801L79.8976 30.709C80.6188 30.5741 81.5669 30.5056 82.714 30.5056H83.6192C84.7641 30.5056 85.9947 30.5741 86.7159 30.709L87.2102 30.801L87.0904 30.3109C86.9513 29.7416 86.8464 29.1488 86.7779 28.5475C86.7095 27.9547 86.6731 27.3041 86.6731 26.615V20.8861C86.6731 20.2954 86.6453 19.8118 86.5896 19.418C87.0861 19.4672 87.7089 19.4908 88.4771 19.4908H96.0251C98.0603 19.4908 100.192 19.7604 101.114 20.6207C102.242 21.6745 102.403 23.5413 102.572 25.5049C102.671 26.6597 102.773 27.848 103.077 28.9241C103.372 29.9728 103.905 30.7346 103.905 30.7346C103.905 30.7346 105.345 30.5014 107.055 30.5014H107.064C108.455 30.5014 109.563 30.5699 110.355 30.7047C110.355 30.7047 111.13 30.8095 111.797 31C110.697 30.2831 109.998 29.2944 109.522 27.73C109.199 26.6614 109.067 25.3363 108.931 23.9784C108.739 22.054 108.54 20.0636 107.783 18.6433C106.963 17.1089 105.602 16.6017 103.528 16.1737L103.53 16.1715ZM101.285 12.7239C100.215 13.4879 98.636 13.8753 96.5944 13.8753H88.5371C87.7581 13.8753 87.1054 13.9009 86.5896 13.9502C86.6453 13.5649 86.6731 13.0941 86.6731 12.527V6.92011C86.6731 6.4814 86.6474 6.10689 86.5982 5.79016C87.1096 5.83938 87.7474 5.86079 88.5349 5.86079H96.7592C98.7665 5.86079 100.312 6.20748 101.347 6.89229C102.358 7.55999 102.85 8.74344 102.85 9.84771C102.85 11.1745 102.336 11.9706 101.283 12.7239H101.285Z" fill="#F5F0EB"/>
<path fill-rule="evenodd" clip-rule="evenodd" d="M163.751 0.47613C169.592 0.47827 174.126 1.79441 177.227 4.39244L177.225 4.39458C180.343 7.00545 181.923 10.6927 181.923 15.3581C181.923 18.4205 181.261 21.1148 179.96 23.3619C178.653 25.6196 176.641 27.3916 173.981 28.6307C171.342 29.8591 168.062 30.4818 164.235 30.4818H153.411C152.045 30.4818 151.097 30.5503 150.378 30.6852L149.884 30.7772L150.002 30.2871C150.139 29.72 150.243 29.1251 150.314 28.5237C150.385 27.9223 150.419 27.2718 150.419 26.5891L150.423 4.36248C150.423 3.68194 150.387 3.03136 150.318 2.43C150.248 1.82865 150.143 1.23371 150.006 0.664455L149.886 0.172241L150.385 0.270684C150.8 0.352006 151.249 0.407648 151.727 0.433329C152.21 0.461149 152.707 0.47613 153.201 0.47613H163.751ZM170.441 23.8584C172.023 23.0152 173.196 21.8146 173.925 20.293L173.923 20.2973C174.664 18.7543 175.038 17.2969 175.038 15.1205C175.038 11.8719 174.131 10.1962 172.34 8.44999C170.546 6.70156 167.925 5.81344 164.122 5.81344H158.953C158.17 5.81344 157.52 5.78775 157.012 5.73853C157.068 6.1323 157.094 6.61596 157.092 7.20661V24.0381C157.092 24.5004 157.068 24.8899 157.019 25.2152C157.505 25.1638 157.973 25.1403 158.418 25.1403H164.443C166.97 25.1403 168.845 24.7101 170.441 23.8584Z" fill="#F5F0EB"/>
<path d="M73.6684 27.193C73.6684 26.7093 73.6855 26.2235 73.7197 25.7399C73.754 25.2562 73.8246 24.8047 73.9273 24.3895C73.1312 24.5286 72.3522 24.6313 71.5904 24.7019C70.8285 24.7726 69.9447 24.8068 68.941 24.8068H55.0435C54.1618 24.8068 53.4705 24.841 52.9612 24.9052V17.9843C53.2073 18.0185 53.4684 18.0421 53.7444 18.0549C54.1596 18.072 54.5919 18.0806 55.0435 18.0806H66.2745C67.2439 18.0806 68.1085 18.1063 68.8704 18.1576C69.6322 18.209 70.4112 18.3224 71.2073 18.4958C71.1025 18.0806 71.034 17.6312 70.9997 17.1454C70.9655 16.6617 70.9484 16.1759 70.9484 15.6923V14.7057C70.9484 14.2221 70.9655 13.7363 70.9997 13.2526C71.034 12.769 71.1046 12.3174 71.2073 11.9022C70.4112 12.0756 69.6322 12.1869 68.8704 12.2404C68.1085 12.2917 67.2418 12.3174 66.2745 12.3174H55.0435C54.1618 12.3174 53.4705 12.3517 52.9612 12.4159V6.02348C53.4705 6.08982 54.1618 6.12192 55.0435 6.12192H68.2669C69.2706 6.12192 70.1544 6.15616 70.9163 6.22679C71.6781 6.29741 72.4571 6.40013 73.2532 6.53923C73.1483 6.12406 73.0799 5.67465 73.0456 5.18886L73.0431 5.15248C73.0105 4.69341 72.9943 4.46393 72.9943 3.99256V2.90113C72.9943 2.41748 73.0114 1.93169 73.0456 1.44803C73.0799 0.964379 73.1505 0.512827 73.2532 0.0976562C72.4571 0.23676 71.6781 0.339482 70.9163 0.410104C70.1544 0.480726 69.2706 0.514967 68.2669 0.514967H50.896C49.8923 0.514967 49.0085 0.480726 48.2466 0.410104C47.4848 0.341623 46.7058 0.23676 45.9097 0.0976562C46.0145 0.512827 46.083 0.964379 46.1173 1.44803C46.1515 1.93383 46.1686 2.41748 46.1686 2.90113V28.0554C46.1686 28.5412 46.1515 29.0249 46.1173 29.5085C46.083 29.9943 46.0124 30.4437 45.9097 30.8589C46.7058 30.7198 47.4848 30.6171 48.2466 30.5464C49.0085 30.4758 49.8902 30.4416 50.896 30.4416H68.941C69.9447 30.4416 70.8285 30.4758 71.5904 30.5464C72.3522 30.6149 73.1312 30.7198 73.9273 30.8589C73.8225 30.4437 73.754 29.9943 73.7197 29.5085L73.7193 29.5022C73.6854 29.0228 73.6684 28.783 73.6684 28.2994V27.193Z" fill="#F5F0EB"/>
<path d="M143.969 27.193V28.2994C143.969 28.783 143.986 29.0228 144.02 29.5022L144.021 29.5085C144.055 29.9943 144.123 30.4437 144.228 30.8589C143.432 30.7198 142.653 30.6149 141.891 30.5464C141.129 30.4758 140.246 30.4416 139.242 30.4416H121.197C120.191 30.4416 119.309 30.4758 118.547 30.5464C117.786 30.6171 117.007 30.7198 116.211 30.8589C116.313 30.4437 116.384 29.9943 116.418 29.5085C116.452 29.0249 116.469 28.5412 116.469 28.0554V2.90113C116.469 2.41748 116.452 1.93383 116.418 1.44803C116.384 0.964379 116.315 0.512827 116.211 0.0976562C117.007 0.23676 117.786 0.341623 118.547 0.410104C119.309 0.480726 120.193 0.514967 121.197 0.514967H138.568C139.571 0.514967 140.455 0.480726 141.217 0.410104C141.979 0.339482 142.758 0.23676 143.554 0.0976562C143.451 0.512827 143.381 0.964379 143.346 1.44803C143.312 1.93169 143.295 2.41748 143.295 2.90113V3.99256C143.295 4.46374 143.311 4.69322 143.344 5.15192L143.346 5.18886C143.381 5.67465 143.449 6.12406 143.554 6.53923C142.758 6.40013 141.979 6.29741 141.217 6.22679C140.455 6.15616 139.571 6.12192 138.568 6.12192H125.344C124.463 6.12192 123.771 6.08982 123.262 6.02348V12.4159C123.771 12.3517 124.463 12.3174 125.344 12.3174H136.575C137.543 12.3174 138.409 12.2917 139.171 12.2404C139.933 12.1869 140.712 12.0756 141.508 11.9022C141.405 12.3174 141.335 12.769 141.301 13.2526C141.266 13.7363 141.249 14.2221 141.249 14.7057V15.6923C141.249 16.1759 141.266 16.6617 141.301 17.1454C141.335 17.6312 141.403 18.0806 141.508 18.4958C140.712 18.3224 139.933 18.209 139.171 18.1576C138.409 18.1063 137.545 18.0806 136.575 18.0806H125.344C124.893 18.0806 124.46 18.072 124.045 18.0549C123.769 18.0421 123.508 18.0185 123.262 17.9843V24.9052C123.771 24.841 124.463 24.8068 125.344 24.8068H139.242C140.246 24.8068 141.129 24.7726 141.891 24.7019C142.653 24.6313 143.432 24.5286 144.228 24.3895C144.125 24.8047 144.055 25.2562 144.021 25.7399C143.986 26.2235 143.969 26.7093 143.969 27.193Z" fill="#F5F0EB"/>
</g>
<path d="M55.9998 49.875C56.4031 50.0143 56.7294 50.2527 56.9788 50.59C57.2281 50.92 57.3528 51.305 57.3528 51.745C57.3528 52.1703 57.2428 52.5553 57.0228 52.9C56.8028 53.2447 56.4948 53.516 56.0988 53.714C55.7028 53.9047 55.2518 54 54.7458 54H52.6008V46.3H54.6358C55.1271 46.3 55.5524 46.388 55.9118 46.564C56.2711 46.7327 56.5461 46.971 56.7368 47.279C56.9274 47.587 57.0228 47.939 57.0228 48.335C57.0228 48.6577 56.9274 48.9583 56.7368 49.237C56.5534 49.5157 56.3078 49.7283 55.9998 49.875ZM53.4808 47.125V49.545H54.6358C55.0904 49.545 55.4498 49.4313 55.7138 49.204C55.9778 48.9767 56.1098 48.687 56.1098 48.335C56.1098 47.983 55.9778 47.6933 55.7138 47.466C55.4498 47.2387 55.0904 47.125 54.6358 47.125H53.4808ZM54.7458 53.175C55.2518 53.175 55.6588 53.0393 55.9668 52.768C56.2821 52.4893 56.4398 52.1483 56.4398 51.745C56.4398 51.3417 56.2821 51.0043 55.9668 50.733C55.6588 50.4543 55.2518 50.315 54.7458 50.315H53.4808V53.175H54.7458ZM64.7794 54L62.0514 50.7H61.1494V54H60.2694V46.3H62.5244C63.0157 46.3 63.4484 46.3953 63.8224 46.586C64.2037 46.7767 64.4971 47.0407 64.7024 47.378C64.9151 47.708 65.0214 48.082 65.0214 48.5C65.0214 49.05 64.8454 49.523 64.4934 49.919C64.1487 50.3077 63.6831 50.5533 63.0964 50.656L65.8794 54H64.7794ZM61.1494 47.125V49.875H62.5244C63.0084 49.875 63.3934 49.7503 63.6794 49.501C63.9654 49.2517 64.1084 48.918 64.1084 48.5C64.1084 48.082 63.9654 47.7483 63.6794 47.499C63.3934 47.2497 63.0084 47.125 62.5244 47.125H61.1494ZM71.8343 54.11C71.1083 54.11 70.4409 53.934 69.8323 53.582C69.2236 53.23 68.7433 52.7497 68.3913 52.141C68.0393 51.5323 67.8633 50.8687 67.8633 50.15C67.8633 49.4313 68.0393 48.7677 68.3913 48.159C68.7433 47.5503 69.2236 47.07 69.8323 46.718C70.4409 46.366 71.1083 46.19 71.8343 46.19C72.5603 46.19 73.2276 46.366 73.8363 46.718C74.4449 47.07 74.9253 47.5503 75.2773 48.159C75.6293 48.7677 75.8053 49.4313 75.8053 50.15C75.8053 50.8687 75.6293 51.5323 75.2773 52.141C74.9253 52.7497 74.4449 53.23 73.8363 53.582C73.2276 53.934 72.5603 54.11 71.8343 54.11ZM71.8343 53.285C72.3916 53.285 72.9013 53.1457 73.3633 52.867C73.8326 52.5883 74.2029 52.2107 74.4743 51.734C74.7529 51.2573 74.8923 50.7293 74.8923 50.15C74.8923 49.5707 74.7529 49.0427 74.4743 48.566C74.2029 48.0893 73.8326 47.7117 73.3633 47.433C72.9013 47.1543 72.3916 47.015 71.8343 47.015C71.2769 47.015 70.7636 47.1543 70.2943 47.433C69.8323 47.7117 69.4619 48.0893 69.1833 48.566C68.9119 49.0427 68.7763 49.5707 68.7763 50.15C68.7763 50.7293 68.9119 51.2573 69.1833 51.734C69.4619 52.2107 69.8323 52.5883 70.2943 52.867C70.7636 53.1457 71.2769 53.285 71.8343 53.285ZM80.5906 50.029L84.2206 54H83.0546L79.6556 50.271V54H78.7756V46.3H79.6556V49.875L82.8896 46.3H83.9676L80.5906 50.029ZM87.5176 50.425V53.175H90.8176V54H86.6376V46.3H90.7076V47.125H87.5176V49.6H90.5976V50.425H87.5176ZM98.408 54L95.68 50.7H94.778V54H93.898V46.3H96.153C96.6444 46.3 97.077 46.3953 97.451 46.586C97.8324 46.7767 98.1257 47.0407 98.331 47.378C98.5437 47.708 98.65 48.082 98.65 48.5C98.65 49.05 98.474 49.523 98.122 49.919C97.7774 50.3077 97.3117 50.5533 96.725 50.656L99.508 54H98.408ZM94.778 47.125V49.875H96.153C96.637 49.875 97.022 49.7503 97.308 49.501C97.594 49.2517 97.737 48.918 97.737 48.5C97.737 48.082 97.594 47.7483 97.308 47.499C97.022 47.2497 96.637 47.125 96.153 47.125H94.778ZM104.044 54.11C103.516 54.11 103.058 54.011 102.669 53.813C102.28 53.615 101.98 53.34 101.767 52.988C101.562 52.636 101.452 52.24 101.437 51.8H102.317C102.332 52.2327 102.489 52.5883 102.79 52.867C103.091 53.1457 103.509 53.285 104.044 53.285C104.521 53.285 104.898 53.1713 105.177 52.944C105.463 52.7167 105.606 52.4087 105.606 52.02C105.606 51.7193 105.525 51.4737 105.364 51.283C105.21 51.085 105.016 50.931 104.781 50.821C104.546 50.711 104.231 50.5937 103.835 50.469C103.351 50.3003 102.966 50.1463 102.68 50.007C102.394 49.8603 102.148 49.644 101.943 49.358C101.738 49.072 101.635 48.6943 101.635 48.225C101.635 47.8437 101.738 47.499 101.943 47.191C102.148 46.883 102.431 46.641 102.79 46.465C103.157 46.2817 103.567 46.19 104.022 46.19C104.455 46.19 104.847 46.2853 105.199 46.476C105.558 46.6593 105.844 46.916 106.057 47.246C106.27 47.576 106.38 47.939 106.387 48.335H105.507C105.492 47.9463 105.342 47.631 105.056 47.389C104.77 47.1397 104.414 47.015 103.989 47.015C103.571 47.015 103.226 47.1177 102.955 47.323C102.684 47.5283 102.548 47.829 102.548 48.225C102.548 48.5037 102.621 48.7347 102.768 48.918C102.922 49.1013 103.109 49.2443 103.329 49.347C103.556 49.4497 103.868 49.5707 104.264 49.71C104.741 49.864 105.129 50.018 105.43 50.172C105.738 50.326 105.995 50.5533 106.2 50.854C106.413 51.1473 106.519 51.536 106.519 52.02C106.519 52.416 106.409 52.7753 106.189 53.098C105.976 53.4133 105.683 53.6627 105.309 53.846C104.935 54.022 104.513 54.11 104.044 54.11ZM115.647 50.029L119.277 54H118.111L114.712 50.271V54H113.832V46.3H114.712V49.875L117.946 46.3H119.024L115.647 50.029ZM122.629 54H121.749V46.3H122.629V54ZM128.187 54H127.307V47.125H125.327V46.3H130.167V47.125H128.187V54Z" fill="#F5F0EB"/>
<defs>
<clipPath id="clip0_903_284">
<rect width="182" height="31" fill="white"/>
</clipPath>
</defs>
</svg>
