<svg width="182" height="31" viewBox="0 0 182 31" fill="none" xmlns="http://www.w3.org/2000/svg">
<path d="M38.0417 4.2416L38.0802 25.6614L38.0866 25.6593C38.0866 26.6587 38.1123 27.5361 38.1637 28.2937C38.2172 29.0513 38.3284 29.826 38.5018 30.6178C38.3177 30.5729 37.5623 30.5172 36.779 30.468C35.2296 30.3739 33.676 30.3846 32.1308 30.5172C31.7285 30.5515 31.4075 30.5879 31.2834 30.6178C31.3861 29.9651 31.4738 29.3017 31.5423 28.6297C31.6129 27.9577 31.6643 27.2258 31.6985 26.434V25.6593L31.7756 13.7156L31.7435 13.7627C31.7435 12.0121 31.7884 10.268 31.8762 8.55809C31.3754 10.069 30.7548 11.6205 30.0207 13.1892L23.8702 26.5239C23.7825 26.7122 23.7033 26.9027 23.6327 27.0974L23.6198 27.1274C23.271 27.84 22.644 30.2989 22.644 30.7334L22.4193 30.697C22.37 30.6906 22.263 30.682 22.1175 30.6713C20.3948 30.5472 18.6656 30.5408 16.9407 30.6435C16.5534 30.667 16.2516 30.6863 16.1617 30.697L15.937 30.7334C15.937 30.2989 15.31 27.8379 14.9611 27.1274L14.9483 27.0974C14.8755 26.9027 14.7985 26.7122 14.7108 26.5239L8.56023 13.1892C7.82833 11.6205 7.20558 10.069 6.7048 8.55809C6.79255 10.268 6.83749 12.0121 6.83749 13.7627L6.80539 13.7156L6.88243 25.6593V26.434C6.91667 27.2258 6.96803 27.9577 7.03865 28.6297C7.10713 29.2995 7.19274 29.963 7.2976 30.6178C7.17348 30.5879 6.85247 30.5515 6.45014 30.5172C4.90287 30.3846 3.34919 30.3717 1.80193 30.468C1.02081 30.5151 0.263227 30.5729 0.0791822 30.6178C0.252527 29.826 0.36595 29.0513 0.417311 28.2937C0.468673 27.5361 0.494353 26.6587 0.494353 25.6593L0.532875 4.23946C0.528594 3.61242 0.494353 3.01106 0.430152 2.45465C0.36167 1.85543 0.254667 1.26477 0.117703 0.699799L0 0.214006L0.494353 0.306028C1.21555 0.440852 2.16146 0.509334 3.31281 0.509334H5.12544C6.10987 0.509334 6.91881 0.487933 7.52659 0.447272C8.12152 0.406611 8.67794 0.306028 9.18299 0.147664L9.65594 0L9.60458 0.490073C9.57462 0.776841 9.60672 1.07003 9.69874 1.35894C9.79505 1.66497 9.94485 2.00095 10.1396 2.36048C10.1845 2.40543 10.2188 2.46321 10.2359 2.52955L17.2874 18.0963C17.4244 18.336 17.557 18.6185 17.6683 18.9074C18.3981 20.5167 18.9417 21.942 19.2862 23.1533C19.6308 21.942 20.1743 20.5167 20.9041 18.9074C21.0154 18.6185 21.1481 18.336 21.285 18.0963L28.3387 2.53169C28.3558 2.46535 28.39 2.40757 28.435 2.36262C28.6297 2.00309 28.7795 1.66497 28.8758 1.36108C28.97 1.07217 28.9999 0.778981 28.97 0.492213L28.9186 0.00214006L29.3916 0.149804C29.8966 0.308168 30.4552 0.408751 31.048 0.449412C31.6557 0.490073 32.4647 0.511474 33.4491 0.511474H35.2617C36.4131 0.511474 37.3611 0.442992 38.0802 0.308168L38.5746 0.216146L38.4568 0.701939C38.3199 1.26691 38.215 1.85757 38.1444 2.45679C38.0802 3.01106 38.046 3.61242 38.0417 4.2416Z" fill="#F5F0EB"/>
<path fill-rule="evenodd" clip-rule="evenodd" d="M103.53 16.1715C106.4 15.4717 109.351 13.2461 109.351 9.21635C109.351 7.5043 108.88 5.57183 107.954 4.31775C107.031 3.0701 105.681 2.10921 103.943 1.46078C102.229 0.823038 100.177 0.497749 97.842 0.497749H84.8005C83.6342 0.499889 83.0307 0.472068 82.2817 0.416427C81.5305 0.360785 80.7772 0.277323 80.041 0.16818L79.5253 0.0911379L79.6836 0.589772C79.7821 0.90008 79.8506 1.24249 79.8827 1.61058C79.9169 1.99365 79.934 2.37886 79.934 2.75551L79.9383 26.615C79.9383 27.2977 79.9041 27.9461 79.8334 28.5475C79.7628 29.1488 79.658 29.7416 79.521 30.313L79.4033 30.801L79.8976 30.709C80.6188 30.5741 81.5669 30.5056 82.714 30.5056H83.6192C84.7641 30.5056 85.9947 30.5741 86.7159 30.709L87.2102 30.801L87.0904 30.3109C86.9513 29.7416 86.8464 29.1488 86.7779 28.5475C86.7095 27.9547 86.6731 27.3041 86.6731 26.615V20.8861C86.6731 20.2954 86.6453 19.8118 86.5896 19.418C87.0861 19.4672 87.7089 19.4908 88.4771 19.4908H96.0251C98.0603 19.4908 100.192 19.7604 101.114 20.6207C102.242 21.6745 102.403 23.5413 102.572 25.5049C102.671 26.6597 102.773 27.848 103.077 28.9241C103.372 29.9728 103.905 30.7346 103.905 30.7346C103.905 30.7346 105.345 30.5014 107.055 30.5014H107.064C108.455 30.5014 109.563 30.5699 110.355 30.7047C110.355 30.7047 111.13 30.8095 111.797 31C110.697 30.2831 109.998 29.2944 109.522 27.73C109.199 26.6614 109.067 25.3363 108.931 23.9784C108.739 22.054 108.54 20.0636 107.783 18.6433C106.963 17.1089 105.602 16.6017 103.528 16.1737L103.53 16.1715ZM101.285 12.7239C100.215 13.4879 98.636 13.8753 96.5944 13.8753H88.5371C87.7581 13.8753 87.1054 13.9009 86.5896 13.9502C86.6453 13.5649 86.6731 13.0941 86.6731 12.527V6.92006C86.6731 6.48135 86.6474 6.10684 86.5982 5.79011C87.1096 5.83933 87.7474 5.86074 88.5349 5.86074H96.7592C98.7665 5.86074 100.312 6.20743 101.347 6.89224C102.358 7.55994 102.85 8.74339 102.85 9.84766C102.85 11.1745 102.336 11.9706 101.283 12.7239H101.285Z" fill="#F5F0EB"/>
<path fill-rule="evenodd" clip-rule="evenodd" d="M163.751 0.47609C169.592 0.47823 174.126 1.79437 177.227 4.3924L177.225 4.39454C180.343 7.00541 181.923 10.6927 181.923 15.3581C181.923 18.4205 181.261 21.1148 179.96 23.3619C178.653 25.6196 176.641 27.3916 173.981 28.6307C171.342 29.8591 168.062 30.4818 164.235 30.4818H153.411C152.045 30.4818 151.097 30.5503 150.378 30.6852L149.884 30.7772L150.002 30.2871C150.139 29.72 150.243 29.1251 150.314 28.5237C150.385 27.9223 150.419 27.2718 150.419 26.5891L150.423 4.36244C150.423 3.6819 150.387 3.03132 150.318 2.42996C150.248 1.82861 150.143 1.23367 150.006 0.664415L149.886 0.172201L150.385 0.270644C150.8 0.351966 151.249 0.407608 151.727 0.433289C152.21 0.461109 152.707 0.47609 153.201 0.47609H163.751ZM170.441 23.8584C172.023 23.0152 173.196 21.8146 173.925 20.293L173.923 20.2973C174.664 18.7543 175.038 17.2969 175.038 15.1205C175.038 11.8719 174.131 10.1962 172.34 8.44995C170.546 6.70152 167.925 5.8134 164.122 5.8134H158.953C158.17 5.8134 157.52 5.78771 157.012 5.73849C157.068 6.13226 157.094 6.61592 157.092 7.20657V24.0381C157.092 24.5004 157.068 24.8899 157.019 25.2152C157.505 25.1638 157.973 25.1403 158.418 25.1403H164.443C166.97 25.1403 168.845 24.7101 170.441 23.8584Z" fill="#F5F0EB"/>
<path d="M73.6684 27.193C73.6684 26.7093 73.6855 26.2235 73.7197 25.7399C73.754 25.2562 73.8246 24.8047 73.9273 24.3895C73.1312 24.5286 72.3522 24.6313 71.5904 24.7019C70.8285 24.7726 69.9447 24.8068 68.941 24.8068H55.0435C54.1618 24.8068 53.4705 24.841 52.9612 24.9052V17.9843C53.2073 18.0185 53.4684 18.0421 53.7444 18.0549C54.1596 18.072 54.5919 18.0806 55.0435 18.0806H66.2745C67.2439 18.0806 68.1085 18.1063 68.8704 18.1576C69.6322 18.209 70.4112 18.3224 71.2073 18.4958C71.1025 18.0806 71.034 17.6312 70.9997 17.1454C70.9655 16.6617 70.9484 16.1759 70.9484 15.6923V14.7057C70.9484 14.2221 70.9655 13.7363 70.9997 13.2526C71.034 12.769 71.1046 12.3174 71.2073 11.9022C70.4112 12.0756 69.6322 12.1869 68.8704 12.2404C68.1085 12.2917 67.2418 12.3174 66.2745 12.3174H55.0435C54.1618 12.3174 53.4705 12.3517 52.9612 12.4159V6.02351C53.4705 6.08985 54.1618 6.12195 55.0435 6.12195H68.2669C69.2706 6.12195 70.1544 6.15619 70.9163 6.22682C71.6781 6.29744 72.4571 6.40016 73.2532 6.53926C73.1483 6.12409 73.0799 5.67468 73.0456 5.18889L73.0431 5.15251C73.0105 4.69344 72.9943 4.46396 72.9943 3.99259V2.90116C72.9943 2.41751 73.0114 1.93172 73.0456 1.44806C73.0799 0.964411 73.1505 0.512859 73.2532 0.0976879C72.4571 0.236792 71.6781 0.339514 70.9163 0.410136C70.1544 0.480758 69.2706 0.514999 68.2669 0.514999H50.896C49.8923 0.514999 49.0085 0.480758 48.2466 0.410136C47.4848 0.341655 46.7058 0.236792 45.9097 0.0976879C46.0145 0.512859 46.083 0.964411 46.1173 1.44806C46.1515 1.93386 46.1686 2.41751 46.1686 2.90116V28.0554C46.1686 28.5412 46.1515 29.0249 46.1173 29.5085C46.083 29.9943 46.0124 30.4437 45.9097 30.8589C46.7058 30.7198 47.4848 30.6171 48.2466 30.5464C49.0085 30.4758 49.8902 30.4416 50.896 30.4416H68.941C69.9447 30.4416 70.8285 30.4758 71.5904 30.5464C72.3522 30.6149 73.1312 30.7198 73.9273 30.8589C73.8225 30.4437 73.754 29.9943 73.7197 29.5085L73.7193 29.5022C73.6854 29.0228 73.6684 28.783 73.6684 28.2994V27.193Z" fill="#F5F0EB"/>
<path d="M143.969 27.193V28.2994C143.969 28.783 143.986 29.0228 144.02 29.5022L144.021 29.5085C144.055 29.9943 144.123 30.4437 144.228 30.8589C143.432 30.7198 142.653 30.6149 141.891 30.5464C141.129 30.4758 140.246 30.4416 139.242 30.4416H121.197C120.191 30.4416 119.309 30.4758 118.547 30.5464C117.786 30.6171 117.007 30.7198 116.211 30.8589C116.313 30.4437 116.384 29.9943 116.418 29.5085C116.452 29.0249 116.469 28.5412 116.469 28.0554V2.90116C116.469 2.41751 116.452 1.93386 116.418 1.44806C116.384 0.964411 116.315 0.512859 116.211 0.0976879C117.007 0.236792 117.786 0.341655 118.547 0.410136C119.309 0.480758 120.193 0.514999 121.197 0.514999H138.568C139.571 0.514999 140.455 0.480758 141.217 0.410136C141.979 0.339514 142.758 0.236792 143.554 0.0976879C143.451 0.512859 143.381 0.964411 143.346 1.44806C143.312 1.93172 143.295 2.41751 143.295 2.90116V3.99259C143.295 4.46377 143.311 4.69325 143.344 5.15195L143.346 5.18889C143.381 5.67468 143.449 6.12409 143.554 6.53926C142.758 6.40016 141.979 6.29744 141.217 6.22682C140.455 6.15619 139.571 6.12195 138.568 6.12195H125.344C124.463 6.12195 123.771 6.08985 123.262 6.02351V12.4159C123.771 12.3517 124.463 12.3174 125.344 12.3174H136.575C137.543 12.3174 138.409 12.2917 139.171 12.2404C139.933 12.1869 140.712 12.0756 141.508 11.9022C141.405 12.3174 141.335 12.769 141.301 13.2526C141.266 13.7363 141.249 14.2221 141.249 14.7057V15.6923C141.249 16.1759 141.266 16.6617 141.301 17.1454C141.335 17.6312 141.403 18.0806 141.508 18.4958C140.712 18.3224 139.933 18.209 139.171 18.1576C138.409 18.1063 137.545 18.0806 136.575 18.0806H125.344C124.893 18.0806 124.46 18.072 124.045 18.0549C123.769 18.0421 123.508 18.0185 123.262 17.9843V24.9052C123.771 24.841 124.463 24.8068 125.344 24.8068H139.242C140.246 24.8068 141.129 24.7726 141.891 24.7019C142.653 24.6313 143.432 24.5286 144.228 24.3895C144.125 24.8047 144.055 25.2562 144.021 25.7399C143.986 26.2235 143.969 26.7093 143.969 27.193Z" fill="#F5F0EB"/>
</svg>
